<?xml version="1.0" standalone="no"?>
<!DOCTYPE svg PUBLIC "-//W3C//DTD SVG 20010904//EN"
 "http://www.w3.org/TR/2001/REC-SVG-20010904/DTD/svg10.dtd">
<svg version="1.0" xmlns="http://www.w3.org/2000/svg"
 width="1024.000000pt" height="1024.000000pt" viewBox="0 0 1024.000000 1024.000000"
 preserveAspectRatio="xMidYMid meet">

<g transform="translate(0.000000,1024.000000) scale(0.100000,-0.100000)"
fill="#000000" stroke="none">
<path d="M3740 7500 c-392 -30 -727 -165 -967 -387 -134 -124 -265 -340 -317
-524 -84 -296 -48 -621 98 -869 143 -244 361 -412 846 -653 512 -254 646 -334
777 -466 211 -211 260 -481 133 -737 -120 -244 -422 -378 -815 -361 -368 16
-655 159 -839 419 -91 129 -175 322 -200 457 -10 57 -19 61 -125 61 -62 0
-101 -4 -109 -12 -9 -9 -12 -138 -12 -518 0 -589 -13 -529 127 -580 394 -142
734 -196 1178 -187 271 6 367 17 560 67 503 130 873 448 1004 863 48 149 64
262 64 432 1 157 -8 221 -49 362 -88 304 -328 572 -709 791 -72 41 -307 158
-495 246 -384 180 -588 344 -652 524 -28 80 -35 218 -14 305 26 111 62 174
145 258 63 63 89 81 155 108 124 51 199 63 366 58 165 -5 227 -19 345 -76 196
-96 329 -279 411 -568 8 -31 48 -42 137 -36 72 5 90 9 98 25 6 11 12 175 16
397 l6 379 -24 24 c-29 29 -280 114 -430 147 -211 45 -507 66 -709 51z"/>
<path d="M5659 7394 c-15 -42 6 -89 59 -131 61 -47 92 -83 92 -106 0 -17 -39
-120 -175 -467 -50 -128 -372 -950 -505 -1289 l-48 -124 33 -46 c72 -101 141
-275 174 -434 l18 -92 690 -3 690 -2 103 -262 c213 -545 239 -631 220 -724
-22 -107 -108 -174 -266 -209 -50 -12 -78 -23 -84 -35 -6 -10 -10 -61 -10
-114 0 -73 4 -98 16 -110 14 -14 110 -16 909 -16 799 0 895 2 909 16 13 12 16
38 16 118 0 118 -6 129 -80 141 -148 24 -251 105 -331 260 -26 50 -136 313
-244 585 -109 272 -298 747 -420 1055 -123 308 -343 860 -489 1227 -146 367
-274 685 -285 706 -11 22 -32 50 -47 61 -26 21 -35 21 -481 21 l-453 0 -11
-26z m354 -934 c19 -52 150 -394 291 -759 141 -365 256 -666 256 -668 0 -1
-265 -3 -590 -3 -324 0 -590 4 -590 8 0 5 43 118 95 253 53 134 116 296 140
359 24 63 80 207 123 320 44 113 113 294 153 402 41 108 77 194 80 190 4 -4
22 -50 42 -102z"/>
</g>
</svg>
