<svg xmlns="http://www.w3.org/2000/svg" viewBox="0 0 16 16" id="Dev--Streamline-Font-Awesome" height="16" width="16">
  <desc>
    Dev Streamline Icon: https://streamlinehq.com
  </desc>
<!--! Font Awesome Free 6.5.2 by @fontawesome - https://fontawesome.com License - https://fontawesome.com/license/free (Icons: CC BY 4.0, Fonts: SIL OFL 1.1, Code: MIT License) Copyright 2024 Fonticons, Inc.-->
  <path d="M4.364199999999999 6.33015c-0.1358 -0.10149999999999999 -0.27194999999999997 -0.15225 -0.40774999999999995 -0.15225H3.34605v3.65645h0.6107499999999999c0.1358 0 0.27194999999999997 -0.050749999999999997 0.40774999999999995 -0.15225 0.1358 -0.10149999999999999 0.2037 -0.25375 0.2037 -0.45709999999999995v-2.43775c-0.00034999999999999994 -0.20299999999999999 -0.0686 -0.35559999999999997 -0.20404999999999998 -0.45709999999999995ZM14.3035 0.16H1.6965C0.8495 0.16 0.1621 0.84565 0.16 1.693v12.613999999999999c0.0021 0.8473499999999999 0.6895 1.533 1.5364999999999998 1.533h12.607c0.8473499999999999 0 1.5344 -0.68565 1.5364999999999998 -1.533V1.693c-0.0021 -0.8473499999999999 -0.6895 -1.533 -1.5364999999999998 -1.533ZM5.5569999999999995 9.23165c0 0.65835 -0.40635 1.6558499999999998 -1.6925999999999999 1.6537499999999998h-1.6239999999999999V5.0943h1.6582999999999999c1.2404 0 1.6575999999999997 0.9960999999999999 1.65795 1.6548l0.00034999999999999994 2.48255Zm3.5237999999999996 -3.1030999999999995H7.215999999999999v1.3447h1.13995v1.03495H7.215999999999999v1.3443500000000002h1.86515V10.887500000000001h-2.1763c-0.39059999999999995 0.01015 -0.7153999999999999 -0.29855000000000004 -0.7251999999999998 -0.6891499999999999V5.8195c-0.00945 -0.39025 0.2996 -0.7143499999999999 0.68985 -0.72415h2.21165l-0.00034999999999999994 1.0332Zm3.6273999999999997 4.03515c-0.46199999999999997 1.07625 -1.28975 0.86205 -1.6603999999999999 0l-1.34855 -5.068h1.13995l1.03985 3.9802 1.03495 -3.9802h1.1402999999999999l-1.3461 5.068Z" fill="currentColor" stroke-width="0.0357"></path>
</svg>